<?xml version="1.0" encoding="utf-8"?>
<!-- Generator: Adobe Illustrator 16.2.0, SVG Export Plug-In . SVG Version: 6.00 Build 0)  -->
<!DOCTYPE svg PUBLIC "-//W3C//DTD SVG 1.1//EN" "http://www.w3.org/Graphics/SVG/1.1/DTD/svg11.dtd">
<svg version="1.1" id="Layer_1" xmlns="http://www.w3.org/2000/svg" xmlns:xlink="http://www.w3.org/1999/xlink" x="0px" y="0px"
	 width="128px" height="128px" viewBox="0 0 128 128" enable-background="new 0 0 128 128" xml:space="preserve">
<path fill-rule="evenodd" clip-rule="evenodd" fill="#FFFFFF" d="M79.179,49.137c6.421,0,11.625,5.318,11.625,11.876v5.939
	c0,6.557-5.203,11.875-11.625,11.875H55.933c-6.419,0-11.623-5.318-11.623-11.875v-5.939c0-6.558,5.203-11.876,11.623-11.876H79.179
	z M55.933,65.466c0,3.279,2.602,5.939,5.812,5.939h11.624c3.209,0,5.811-2.66,5.811-5.939v-2.967c0-3.281-2.601-5.939-5.811-5.939
	H61.745c-3.21,0-5.812,2.658-5.812,5.939V65.466z M67.558,127.588c-28.066,0-52.412-19.064-59.754-45.198
	c-5.377-19.137,5.875-19.626,9.851-4.453c5.898,22.513,26.007,39.092,49.904,39.092c28.529,0,51.656-23.627,51.656-52.774
	c0-29.147-23.127-52.775-51.656-52.775c-9.562,0-18.516,2.653-26.196,7.28c-2.976,1.792-5.668,2.923-7.97,3.54l-4.948-7.136
	c1.555-1.519,3.731-3.177,6.716-4.916c9.612-5.598,20.523-9.326,32.399-9.326c34.235,0,61.99,28.354,61.99,63.333
	C129.548,99.232,101.793,127.588,67.558,127.588z M33.392,22.299l7.902,11.396c0.551,0.793,0.891,2.7,0.098,3.729
	c-0.793,1.032-2.064,1.699-3.223,1.695L6.875,39.925c-0.754-0.002-3.068-1.244-3.425-1.759c-0.36-0.517-0.737-3.159-0.491-3.886
	L14.08,4.383c0.256-0.745,0.804-1.442,1.502-1.948c0.348-0.249,0.728-0.455,1.131-0.593c1.214-0.424,2.863,0.535,3.414,1.328
	l8.316,11.994"/>
</svg>
