<?xml version="1.0" encoding="utf-8"?>
<!-- Generator: Adobe Illustrator 16.2.0, SVG Export Plug-In . SVG Version: 6.00 Build 0)  -->
<!DOCTYPE svg PUBLIC "-//W3C//DTD SVG 1.1//EN" "http://www.w3.org/Graphics/SVG/1.1/DTD/svg11.dtd">
<svg version="1.1" id="Layer_1" xmlns="http://www.w3.org/2000/svg" xmlns:xlink="http://www.w3.org/1999/xlink" x="0px" y="0px"
	 width="56px" height="33px" viewBox="0 0 56 33" enable-background="new 0 0 56 33" xml:space="preserve">
<path fill-rule="evenodd" clip-rule="evenodd" fill="#FFFFFF" d="M10.182,22.846V10.154L22.909,0v30.461L10.182,22.846z
	 M0.002,20.748c0-1.632,0-7.221,0-8.49s2.176-2.175,2.176-2.175h5.441v12.841H1.09C1.09,22.923,0.002,22.379,0.002,20.748z"/>
<path fill-rule="evenodd" clip-rule="evenodd" fill="#FFFFFF" d="M34.902,9.9c0.841-0.41,1.807,0.053,2.159,1.033
	c0,0,1.097-0.456,1.097,5.083c0,5.624-1.185,3.636-1.185,3.636c-0.234,1.026-1.138,1.637-2.019,1.364
	c-0.881-0.273-0.58-2.289-0.345-3.315l0.249-1.625l-0.017-2.698C34.49,12.398,34.062,10.31,34.902,9.9z"/>
</svg>
