<?xml version="1.0" encoding="utf-8"?>
<!-- Generator: Adobe Illustrator 16.2.0, SVG Export Plug-In . SVG Version: 6.00 Build 0)  -->
<!DOCTYPE svg PUBLIC "-//W3C//DTD SVG 1.1//EN" "http://www.w3.org/Graphics/SVG/1.1/DTD/svg11.dtd">
<svg version="1.1" id="Layer_1" xmlns="http://www.w3.org/2000/svg" xmlns:xlink="http://www.w3.org/1999/xlink" x="0px" y="0px"
	 width="48px" height="17px" viewBox="0 0 48 17" enable-background="new 0 0 48 17" xml:space="preserve">
<path fill-rule="evenodd" clip-rule="evenodd" fill="#FFFFFF" d="M48,11.975H36l0.029,3.369c0,0.489-0.5,1.372-1.267,1.559
	c-0.254,0.063-0.391,0.092-0.656,0.092c-0.534,0-0.787-0.123-1.181-0.353l-4.679-4.614c-0.382-0.225-1.122-1.421-1.122-1.739
	s0.74-1.514,1.122-1.739l4.679-4.742c0.588-0.346,1.07-0.45,1.836-0.262c0.767,0.187,1.267,1.07,1.267,1.559l-0.046,3.285
	l8.589,0.165V0H48l0.001,8.389L48,11.975z"/>
<path fill-rule="evenodd" clip-rule="evenodd" fill="#FFFFFF" d="M5.143,3.849h10.286c2.84,0,5.143,2.297,5.143,5.132v2.566
	c0,2.834-2.303,5.132-5.143,5.132H5.143C2.303,16.679,0,14.381,0,11.547V8.981C0,6.146,2.303,3.849,5.143,3.849z M7.714,7.057h5.143
	c1.42,0,2.572,1.149,2.572,2.566v1.283c0,1.417-1.151,2.566-2.572,2.566H7.714c-1.42,0-2.571-1.149-2.571-2.566V9.623
	C5.143,8.206,6.294,7.057,7.714,7.057z"/>
</svg>
