<?xml version="1.0" encoding="utf-8"?>
<!-- Generator: Adobe Illustrator 16.2.0, SVG Export Plug-In . SVG Version: 6.00 Build 0)  -->
<!DOCTYPE svg PUBLIC "-//W3C//DTD SVG 1.1//EN" "http://www.w3.org/Graphics/SVG/1.1/DTD/svg11.dtd">
<svg version="1.1" id="Layer_1" xmlns="http://www.w3.org/2000/svg" xmlns:xlink="http://www.w3.org/1999/xlink" x="0px" y="0px"
	 width="600px" height="421.216px" viewBox="0 0 600 421.216" enable-background="new 0 0 600 421.216" xml:space="preserve">
<path fill="#FFFFFF" d="M176,91.98c0,0,248.525,0,249.468,0C529.388,91.721,585.36,177.836,585.36,222
	c0,9.497,0.099,153.524,0.099,153.524c0,26.81-27.948,44.144-48.882,44.144s-43.384-23.001-43.384-44.501
	c0-2.069-0.043-115.165-0.043-117.531c0-43.104-43.001-70.664-81.232-70.664c-9.058,0-235.917-0.139-235.917-0.139V91.98z"/>
<path fill="#FFFFFF" d="M11.264,166.478l147.336,123.571c5.353,3.561,13.369,4.634,20.339,2.707
	c6.975-1.93,11.534-11.011,9.534-16.056V20.442c2-5.034-2.559-14.117-9.534-16.042c-2.31-0.644-4.724-0.949-7.125-0.949
	c-4.861,0-9.633,1.271-13.214,3.641L11.264,130.679c-3.472,2.31-10.197,14.618-10.197,17.908
	C1.067,151.84,7.792,164.168,11.264,166.478z"/>
</svg>
