<?xml version="1.0" encoding="utf-8"?>
<!-- Generator: Adobe Illustrator 16.2.0, SVG Export Plug-In . SVG Version: 6.00 Build 0)  -->
<!DOCTYPE svg PUBLIC "-//W3C//DTD SVG 1.1//EN" "http://www.w3.org/Graphics/SVG/1.1/DTD/svg11.dtd">
<svg version="1.1" id="Layer_1" xmlns="http://www.w3.org/2000/svg" xmlns:xlink="http://www.w3.org/1999/xlink" x="0px" y="0px"
	 width="128px" height="128px" viewBox="0 0 128 128" enable-background="new 0 0 128 128" xml:space="preserve">
<g>
	<g>
		<path fill-rule="evenodd" clip-rule="evenodd" fill="#FFFFFF" d="M25.89,50.673c0-1.332-1.357-3.738-3.44-4.243
			c-2.083-0.514-3.393-0.227-4.989,0.714L4.751,60.052c-1.039,0.614-3.047,3.87-3.047,4.734s2.008,4.12,3.047,4.735L17.46,82.083
			c1.068,0.628,1.757,0.959,3.208,0.959c0.719,0,1.092-0.077,1.781-0.249c2.083-0.506,3.44-2.912,3.44-4.244l-0.076-9.169h32.6
			l0.003-9.765h-32.65L25.89,50.673z M114.302,47.258H86.357c-7.717,0-13.971,6.253-13.971,13.972v6.985
			c0,7.715,6.254,13.973,13.971,13.973h27.944c7.713,0,13.972-6.258,13.972-13.973v-6.985
			C128.273,53.511,122.015,47.258,114.302,47.258z M114.302,66.47c0,3.856-3.13,6.985-6.986,6.985H93.344
			c-3.857,0-6.986-3.129-6.986-6.985v-3.493c0-3.857,3.129-6.987,6.986-6.987h13.972c3.856,0,6.986,3.129,6.986,6.987V66.47z"/>
	</g>
</g>
</svg>
